<svg width="79" height="109" viewBox="0 0 79 109" fill="none" xmlns="http://www.w3.org/2000/svg">
<g filter="url(#filter0_d_2_28)">
<path fill-rule="evenodd" clip-rule="evenodd" d="M37.3454 0.62003C36.7623 0.746866 35.8808 1.04719 35.3866 1.28756C33.4856 2.21243 31.5252 4.49742 30.9888 6.41385L30.7414 7.29689H24.4092C17.1107 7.29689 16.8569 7.34046 16.0399 8.73451C15.6247 9.44271 15.5632 9.7812 15.5621 11.3618L15.5609 13.1761L13.4899 13.1896C11.1344 13.2052 9.94251 13.5134 8.19918 14.5582C6.3267 15.6805 4.86113 17.6765 4.2601 19.9228C4.04922 20.711 4.002 27.4204 4.00007 56.7479C3.99814 87.9187 4.03535 92.7535 4.28536 93.7131C5.08088 96.7676 7.1361 99.0057 10.073 100.016C11.1843 100.398 11.6359 100.404 39.2031 100.404H67.2044L68.5038 99.9154C71.0378 98.9616 72.9901 96.9413 73.9184 94.3124C74.2307 93.428 74.2565 90.9614 74.3072 57.3348C74.3552 25.4772 74.3273 21.169 74.0659 20.1319C73.2916 17.0587 71.4145 14.9146 68.4866 13.7586C67.3324 13.3028 66.8497 13.226 64.9905 13.2029L62.8335 13.1761L62.7589 11.2084C62.6787 9.08822 62.4927 8.63196 61.3668 7.79075C60.8573 7.41024 60.5527 7.39077 54.2107 7.33564L47.5865 7.27819L47.2736 6.33598C46.5413 4.13156 44.8069 2.18911 42.7152 1.23166C40.8635 0.383898 39.2688 0.202316 37.3454 0.62003ZM41.7394 3.41815C42.9637 4.04771 44.0061 5.0732 44.5682 6.20105L45.0663 7.20051L39.249 7.25159C36.0495 7.27974 33.3964 7.2674 33.3534 7.22422C33.3102 7.18104 33.4143 6.81113 33.5845 6.4021C34.1466 5.05142 35.8735 3.57969 37.5382 3.03224C38.4374 2.73674 40.8443 2.95764 41.7394 3.41815ZM15.5642 18.5252C15.565 21.3914 15.7641 21.9903 16.9592 22.7188C17.5762 23.095 17.9733 23.102 39.1767 23.102C60.2686 23.102 60.7802 23.0931 61.3847 22.7245C62.4967 22.0464 62.7899 21.1422 62.7899 18.3884V15.9711H64.6138C67.107 15.9711 68.3002 16.4157 69.7459 17.8831C71.6357 19.8015 71.4642 15.9187 71.4642 56.7523C71.4642 97.7285 71.6363 93.8767 69.7197 95.8071C67.7424 97.7987 71.021 97.6055 39.1767 97.6055H11.2263L10.2706 97.1317C8.99567 96.4996 7.92507 95.3944 7.30323 94.068L6.79279 92.9792V56.9329C6.79279 22.6231 6.80956 20.843 7.14131 19.9833C7.79515 18.2889 9.24433 16.8794 10.9372 16.2909C11.4836 16.1011 12.5001 15.9862 13.684 15.9804L15.5634 15.9711L15.5642 18.5252ZM51.4172 32.308C50.257 32.8877 50.1641 33.3012 50.1641 37.8837C50.1641 41.7266 50.1878 41.9976 50.5681 42.5099C51.2807 43.4695 51.5944 43.5302 55.8505 43.5325C59.4263 43.5343 59.8605 43.499 60.4163 43.1601C61.4427 42.5342 61.4898 42.2969 61.4946 37.7302C61.4994 33.0588 61.4564 32.8744 60.2212 32.2882C59.2067 31.8069 52.3893 31.8221 51.4172 32.308ZM60.1574 32.7626C60.9633 33.13 61.0551 33.6612 61.0551 37.9642V42.0122L60.545 42.4851C60.036 42.9568 60.0265 42.9577 55.8706 42.9535C52.0645 42.9494 51.6647 42.9172 51.2243 42.5793L50.7424 42.2094L50.6832 38.1204C50.6203 33.7881 50.7158 33.1467 51.4789 32.7778C52.0618 32.496 59.5434 32.4829 60.1574 32.7626ZM13.7256 35.4882L13.7322 36.1147L30.2615 36.164L46.7907 36.2132V35.5376V34.8617H30.2549H13.7191L13.7256 35.4882ZM13.7667 39.5642C13.7093 39.7139 13.7096 40.0181 13.7679 40.2406C13.8735 40.6444 13.8791 40.6446 24.0796 40.6446H34.2858L34.2252 40.0181L34.1649 39.3916L24.0179 39.3417C15.4235 39.2995 13.8552 39.3334 13.7667 39.5642ZM51.417 47.0275C51.152 47.1287 50.7616 47.4471 50.5496 47.7351C50.2013 48.2081 50.1579 48.6197 50.1007 52.0028C50.066 54.0621 50.0931 56.0439 50.1612 56.4065C50.2292 56.7693 50.5471 57.3225 50.8676 57.6357L51.4504 58.2055L55.9203 58.1475C60.0899 58.0933 60.4182 58.0634 60.8064 57.7012C61.0354 57.4879 61.3032 57.0975 61.4017 56.8338C61.5002 56.5699 61.5472 54.5062 61.5065 52.2411C61.4248 47.7043 61.3618 47.4577 60.174 47.0275C59.4442 46.763 52.1094 46.763 51.417 47.0275ZM60.6204 47.8581C61.0046 48.2999 61.0275 48.5478 61.0474 52.4659C61.068 56.5162 61.0587 56.6179 60.6277 57.1189L60.1873 57.6311H55.8505H51.5138L51.0799 57.1266C50.6589 56.6374 50.646 56.4984 50.646 52.4799C50.646 48.3388 50.6462 48.3373 51.1192 47.8644L51.5922 47.3912H55.9033H60.2145L60.6204 47.8581ZM13.8286 50.2666C13.8286 50.5758 13.9153 50.8576 14.0211 50.8931C14.1272 50.9284 21.5437 50.9346 30.5022 50.907L46.7907 50.8567V50.2805V49.7044H30.3097H13.8286V50.2666ZM13.8286 54.7161V55.2944H24.0098H34.1911V54.7161V54.1379H24.0098H13.8286V54.7161ZM51.1049 62.0237C50.1966 62.5775 50.0677 63.2312 50.0677 67.2805C50.0677 71.3765 50.2053 71.9945 51.2609 72.6379C51.8461 72.9947 52.2264 73.0271 55.8505 73.0271C59.4241 73.0271 59.8609 72.9913 60.4163 72.6526C61.4695 72.0103 61.5142 71.783 61.49 67.1843C61.4661 62.6153 61.3843 62.23 60.3579 61.8396C60.0915 61.7384 58.0359 61.6559 55.7898 61.6563C52.1162 61.6569 51.6458 61.6937 51.1049 62.0237ZM60.0147 62.2416C60.3449 62.3499 60.7118 62.6552 60.834 62.9231C61.0634 63.4266 61.1534 70.8115 60.9398 71.6074C60.7417 72.3453 60.0944 72.4502 55.7362 72.4502C50.2061 72.4502 50.646 72.8833 50.646 67.4376C50.646 63.1662 50.7873 62.3456 51.5479 62.2003C52.4244 62.0328 59.4835 62.0671 60.0147 62.2416ZM13.7796 64.7879C13.7351 64.9205 13.738 65.1808 13.786 65.3662C13.8685 65.6841 14.8192 65.7035 30.3322 65.7035H46.7907V65.1253V64.547H30.3257C17.3255 64.547 13.8436 64.5977 13.7796 64.7879ZM13.7792 68.9323C13.7397 69.0119 13.7237 69.1854 13.7438 69.3178C13.764 69.4504 13.7912 69.6889 13.8045 69.8479C13.8255 70.101 15.1029 70.137 24.0449 70.137H34.2613V69.4624V68.7877H24.0563C18.4435 68.7877 13.8189 68.8527 13.7792 68.9323ZM51.4228 76.5519C51.161 76.6846 50.7489 77.0865 50.5072 77.445C50.0864 78.0697 50.0677 78.2596 50.0677 81.9302C50.0677 87.8506 49.899 87.6845 55.8891 87.6648C58.1473 87.6573 60.1395 87.5923 60.3162 87.5202C60.4932 87.4482 60.8151 87.1629 61.032 86.8861C61.3984 86.4184 61.43 86.0759 61.4815 82.0065L61.537 77.6301L60.7929 76.9677L60.0487 76.3054L55.9739 76.3083C53.1018 76.3102 51.7584 76.3821 51.4228 76.5519ZM60.179 77.0034C60.9284 77.291 61.0551 78.048 61.0551 82.2378V86.2617L60.5581 86.7292C60.0685 87.1895 59.9991 87.1974 55.9276 87.2552L51.7943 87.3142L51.22 86.74L50.646 86.1659V81.9978V77.83L51.1192 77.3569C51.592 76.8839 51.594 76.8837 55.7297 76.8837C58.0052 76.8837 60.0074 76.9377 60.179 77.0034ZM13.8286 79.8715V80.5462H30.3097H46.7907V79.8715V79.1968H30.3097H13.8286V79.8715ZM13.8286 84.2086V84.7904L23.9967 84.7404L34.1649 84.6905V84.2086V83.7267L23.9967 83.6768L13.8286 83.6269V84.2086Z" fill="#234964"/>
</g>
<defs>
<filter id="filter0_d_2_28" x="0" y="0.404419" width="78.3265" height="108" filterUnits="userSpaceOnUse" color-interpolation-filters="sRGB">
<feFlood flood-opacity="0" result="BackgroundImageFix"/>
<feColorMatrix in="SourceAlpha" type="matrix" values="0 0 0 0 0 0 0 0 0 0 0 0 0 0 0 0 0 0 127 0" result="hardAlpha"/>
<feOffset dy="4"/>
<feGaussianBlur stdDeviation="2"/>
<feComposite in2="hardAlpha" operator="out"/>
<feColorMatrix type="matrix" values="0 0 0 0 0 0 0 0 0 0 0 0 0 0 0 0 0 0 0.25 0"/>
<feBlend mode="normal" in2="BackgroundImageFix" result="effect1_dropShadow_2_28"/>
<feBlend mode="normal" in="SourceGraphic" in2="effect1_dropShadow_2_28" result="shape"/>
</filter>
</defs>
</svg>
