<svg width="123" height="108" viewBox="0 0 123 108" fill="none" xmlns="http://www.w3.org/2000/svg">
<g filter="url(#filter0_d_3_40)">
<path fill-rule="evenodd" clip-rule="evenodd" d="M57.0132 0.404419C53.8847 1.24539 50.2645 3.48069 47.6079 5.90439C43.2429 9.8874 41.6123 13.7304 41.436 19.6691L40.7434 23.2327L37.3817 25.9204C35.5324 27.3988 33.9113 28.609 33.7798 28.6098C33.6478 28.6107 28.5547 24.6349 22.4618 19.7756C7.33025 7.70691 6.81289 7.3207 5.78542 7.3207C5.28807 7.3207 4.68342 7.69115 4.44071 8.14421C4.14776 8.6918 4 20.1661 4 42.3916C4 70.0261 4.10049 75.9155 4.57995 76.3949C5.99789 77.8129 33.0853 99.0969 33.6295 99.2204C33.9637 99.2966 40.2785 94.5518 47.662 88.6769C55.0459 82.802 61.2419 77.9495 61.4313 77.8938C61.703 77.8133 73.233 86.6054 75.2688 88.4453C75.9557 89.0661 85.6611 96.7605 87.5768 98.2031C88.7904 99.1173 89.3857 99.3217 90.0001 99.0356C90.4476 98.8274 97.1499 93.6069 104.894 87.4353L118.973 76.2135L118.864 41.8738L118.755 7.5336L117.627 7.40288C116.74 7.30026 115.327 8.20553 110.981 11.661C107.946 14.0749 101.89 18.8869 97.5237 22.3547C92.4477 26.3863 89.3938 28.5434 89.054 28.3369C88.7619 28.1593 87.1817 26.9509 85.5423 25.6513L81.6981 23.2327L81.6981 19.6691C81.5824 7.3207 69.8964 -2.09558 57.0132 0.404419ZM67.3751 2.72035C72.0645 4.33374 76.2839 9.25362 78.3751 13.7203C79.3063 15.7093 79.3614 16.7849 79.3751 20.2203C79.3904 24.0015 79.3037 25.735 77.8751 28.7203C76.0931 32.4449 72.9622 36.7339 69.8964 40.7203C65.5319 46.3951 62.3358 50.4044 62.3358 50.4044C62.3358 50.4044 60.1399 48.3509 59 46.9044C57.8597 45.4579 55.7026 42.8514 55 41.9645C51.4534 37.4858 48.2611 33.5241 46.2717 29.5543C44.109 25.2391 43.6532 23.2651 43.6541 19.6691C43.6549 16.2631 44.0173 14.9047 45.5 11.9044C47.7419 7.36828 52.3016 4.08464 57.0132 2.72035C59.7422 1.93005 64.7201 1.80699 67.3751 2.72035ZM58.2331 8.61047C55.7349 9.38203 52.807 11.7138 51.4223 14.034C47.7689 20.155 50.2441 28.2828 56.6542 31.2132C62.8276 34.0355 69.9726 31.3576 72.7434 25.1838C76.2593 17.3489 70.955 8.76163 62.3358 8.3354C60.8135 8.26003 58.9672 8.38394 58.2331 8.61047ZM65.5736 12.8775C68.4546 14.2724 69.675 16.2371 69.8964 19.8361C70.0595 22.4918 69.9599 23.0407 69.0831 24.3134C67.3675 26.8053 65.1618 28.2841 62.828 28.5085C54.8339 29.2767 50.3765 20.2453 55.8647 14.401C58.2169 11.8969 62.2425 11.265 65.5736 12.8775ZM24.3004 24.3134L33.5 30.5273V41.9645C33.5 49.2965 33.5 53.4044 33.5 53.4044C33.5 53.4044 25.7256 53.5467 24.3004 53.9044C23.0937 54.2071 21.1188 54.7281 21.9104 55.6815C22.3626 56.2265 22.6077 55.8982 25.8004 55.6815C26.7225 55.6189 30.8004 55.2497 30.8004 55.2497H33.5V74.4044C33.5 84.8303 33.5 95.9044 33.5 95.9044C33.5 95.9044 25.1129 89.8164 18.564 84.6198L5.78542 73.7468V62.7371V58.9798L7.83228 58.8154C8.47652 58.4841 12.009 57.9987 12.009 57.9987C14.1198 57.3689 15.4014 58.0151 14.718 56.7386C14.173 55.72 14.4698 54.9946 12.009 55.8629C11.0135 56.2142 5.87313 56.4044 5.78542 56.4044C5.78542 56.4044 5.78542 45.8585 5.78542 33.9044V9.90439L12.2631 14.9044C14.4296 16.6272 19.7919 20.7388 24.3004 24.3134ZM116.082 67.7204C115.984 67.9789 113.517 68.6243 111.448 69.2814C107.025 70.6857 106.406 71.1328 106.785 72.6461L109.654 71.7204C109.654 71.7204 112.793 70.6888 114.154 70.2204C116.654 70.2204 116.243 72.1326 116.082 73.5314C115.972 74.4928 114.16 76.9728 104.894 84.4044C98.6875 89.3821 91.3834 95.163 90.9734 95.4044C90.2738 95.817 90.0001 84.4044 90.0001 84.4044V74.7204L94.6541 75.2204C98.6417 75.2204 98.3311 75.2882 98.1541 74.7204C97.8818 73.8474 97.1541 73.6754 94.6541 73.8474L90.0001 73.5314V52.7204L90.5824 31.2204L95.0824 27.5466C97.9149 25.3218 103.81 20.1947 107.582 17.2204L117.082 10.7204L116.582 40.2204C116.643 55.1386 116.181 67.4623 116.082 67.7204ZM43.6541 29.5543C44.3881 31.0455 46.4067 33.3746 47.6079 35.2204C49.8715 38.698 60.0356 51.4322 60.8004 51.9044C61.5826 52.3881 62.4344 53.2298 63.8004 51.4044C64.5392 50.4169 66.7787 47.4805 68.8004 44.9044C73.5064 38.9073 76.8055 34.1685 78.8004 30.4044C79.669 28.765 81.5824 25.9044 81.5824 25.9044C82.1365 24.2622 84.0247 27.1659 85.5423 28.3369L88.0824 30.5273V45.4306V62.9044C88.0952 87.4965 88.3979 95.7344 87.9734 95.4044C86.2467 94.0644 69.4229 81.1658 65.9734 78.4044C62.2041 75.3867 62.1504 75.2204 61.5824 75.2204C61.5824 75.2204 55.3478 79.1163 48.4212 84.6198C41.4941 90.1234 35.0854 94.9044 34.9734 94.9044C34.9734 94.9044 34.9734 78.9034 34.9734 62.075V30.5273L38.2631 27.8046C39.9612 26.3824 41.436 25.1838 41.9451 26.9381C42.0886 26.9215 42.9195 28.0627 43.6541 29.5543ZM40.218 54.2204C39.4701 54.2204 39.3357 54.5727 39.4145 55.2497C39.5478 56.3968 40.436 55.7204 41.436 55.7204L46.936 56.7204L48.936 57.9044C49.936 57.9044 48.718 56.4044 48.718 56.4044C46.718 55.2497 41.218 54.2204 40.218 54.2204ZM56.4596 60.2061C55.186 61.4797 56.2319 61.4398 59.936 63.9044C62.7583 65.7822 63.627 66.6075 64.436 66.4044C65.2421 66.2021 65.3164 65.9715 65.3164 65.688C65.3164 65.4044 64.4746 65.4662 61.436 63.4044C57.8205 60.9513 57.3402 59.3255 56.4596 60.2061ZM71.6541 70.7204C71.1541 71.7204 71.7512 71.3779 76.1541 72.7204C79.9518 73.8791 81.2885 74.6495 81.6981 73.3593C81.6981 72.7204 80.8266 73.043 76.6541 71.7204C71.756 70.1675 71.6541 70.7204 71.6541 70.7204Z" fill="#234964"/>
</g>
<defs>
<filter id="filter0_d_3_40" x="0" y="0" width="122.973" height="107.221" filterUnits="userSpaceOnUse" color-interpolation-filters="sRGB">
<feFlood flood-opacity="0" result="BackgroundImageFix"/>
<feColorMatrix in="SourceAlpha" type="matrix" values="0 0 0 0 0 0 0 0 0 0 0 0 0 0 0 0 0 0 127 0" result="hardAlpha"/>
<feOffset dy="4"/>
<feGaussianBlur stdDeviation="2"/>
<feComposite in2="hardAlpha" operator="out"/>
<feColorMatrix type="matrix" values="0 0 0 0 0 0 0 0 0 0 0 0 0 0 0 0 0 0 0.25 0"/>
<feBlend mode="normal" in2="BackgroundImageFix" result="effect1_dropShadow_3_40"/>
<feBlend mode="normal" in="SourceGraphic" in2="effect1_dropShadow_3_40" result="shape"/>
</filter>
</defs>
</svg>
